<svg width="140" height="44" viewBox="0 0 140 44" fill="none" xmlns="http://www.w3.org/2000/svg">
<rect width="139.029" height="44.0001" fill="#2E3A59"/>
<path d="M29.1039 21.2584C29.1164 20.3256 29.3726 19.411 29.8489 18.5997C30.3251 17.7884 31.0059 17.1067 31.8278 16.6182C31.3057 15.8971 30.6168 15.3038 29.816 14.8852C29.0152 14.4666 28.1244 14.2343 27.2145 14.2068C25.2735 14.0098 23.3918 15.3298 22.4027 15.3298C21.3945 15.3298 19.8716 14.2263 18.2317 14.259C17.171 14.2921 16.1372 14.5903 15.2312 15.1246C14.3251 15.6589 13.5776 16.4109 13.0616 17.3076C10.8261 21.0497 12.4935 26.5493 14.6349 29.5742C15.7063 31.0554 16.9585 32.7099 18.5969 32.6512C20.2001 32.5869 20.7989 31.6627 22.7342 31.6627C24.6516 31.6627 25.2133 32.6512 26.885 32.6139C28.6054 32.5869 29.6893 31.1261 30.7231 29.6309C31.4929 28.5755 32.0852 27.4091 32.4782 26.1748C31.4787 25.7661 30.6258 25.0819 30.0257 24.2076C29.4257 23.3334 29.1051 22.3077 29.1039 21.2584Z" fill="white"/>
<path d="M25.9465 12.2174C26.8845 11.1287 27.3466 9.72928 27.2347 8.31641C25.8016 8.46194 24.4779 9.12417 23.5272 10.1711C23.0623 10.6826 22.7063 11.2777 22.4795 11.9222C22.2527 12.5668 22.1594 13.2483 22.2052 13.9278C22.922 13.9349 23.6311 13.7847 24.2792 13.4884C24.9272 13.1922 25.4973 12.7576 25.9465 12.2174Z" fill="white"/>
<path d="M49.3706 28.9014H43.8994L42.5855 32.6525H40.2681L45.4503 18.7744H47.858L53.0403 32.6525H50.6834L49.3706 28.9014ZM44.466 27.1705H48.8029L46.665 21.0827H46.6051L44.466 27.1705Z" fill="white"/>
<path d="M64.2323 27.5942C64.2323 30.7384 62.4917 32.7586 59.865 32.7586C59.1996 32.7922 58.5379 32.644 57.9555 32.331C57.3732 32.0179 56.8938 31.5526 56.5723 30.9883H56.5226V36H54.3745V22.5345H56.4538V24.2174H56.4933C56.8296 23.6559 57.3171 23.193 57.9038 22.878C58.4906 22.563 59.1547 22.4077 59.8255 22.4286C62.4815 22.4286 64.2323 24.4586 64.2323 27.5942ZM62.0244 27.5942C62.0244 25.5456 60.9294 24.1989 59.2588 24.1989C57.6176 24.1989 56.5136 25.574 56.5136 27.5942C56.5136 29.6329 57.6176 30.9982 59.2588 30.9982C60.9294 30.9982 62.0244 29.6612 62.0244 27.5942Z" fill="white"/>
<path d="M75.7507 27.5941C75.7507 30.7384 74.0101 32.7586 71.3834 32.7586C70.718 32.7922 70.0563 32.644 69.474 32.3309C68.8916 32.0179 68.4123 31.5526 68.0907 30.9883H68.041V36H65.8929V22.5345H67.9722V24.2174H68.0117C68.348 23.6559 68.8355 23.193 69.4222 22.878C70.009 22.563 70.6731 22.4077 71.3439 22.4286C73.9999 22.4286 75.7507 24.4586 75.7507 27.5941ZM73.5428 27.5941C73.5428 25.5456 72.4478 24.1988 70.7772 24.1988C69.136 24.1988 68.032 25.574 68.032 27.5941C68.032 29.6328 69.136 30.9982 70.7772 30.9982C72.4479 30.9982 73.5428 29.6612 73.5428 27.5941H73.5428Z" fill="white"/>
<path d="M83.363 28.7857C83.5221 30.1619 84.9049 31.0655 86.7945 31.0655C88.6051 31.0655 89.9077 30.1619 89.9077 28.9209C89.9077 27.8437 89.1221 27.1988 87.2618 26.7567L85.4016 26.3234C82.7659 25.7079 81.5422 24.5161 81.5422 22.5822C81.5422 20.1877 83.7005 18.543 86.7652 18.543C89.7982 18.543 91.8774 20.1877 91.9474 22.5822H89.779C89.6492 21.1972 88.4651 20.3612 86.7346 20.3612C85.0042 20.3612 83.8201 21.207 83.8201 22.4381C83.8201 23.4193 84.5764 23.9966 86.4265 24.4386L88.0079 24.814C90.9529 25.4874 92.1765 26.6312 92.1765 28.6611C92.1765 31.2575 90.0375 32.8837 86.6353 32.8837C83.4521 32.8837 81.3029 31.2957 81.1641 28.7856L83.363 28.7857Z" fill="white"/>
<path d="M96.8127 20.1396V22.5341H98.8027V24.1789H96.8127V29.7569C96.8127 30.6235 97.2111 31.0273 98.0859 31.0273C98.3222 31.0233 98.5581 31.0073 98.7926 30.9792V32.6141C98.3992 32.6852 97.9995 32.7174 97.5994 32.7102C95.4807 32.7102 94.6544 31.9407 94.6544 29.9784V24.1789H93.1328V22.5341H94.6544V20.1396H96.8127Z" fill="white"/>
<path d="M99.9556 27.5937C99.9556 24.4102 101.895 22.4097 104.919 22.4097C107.953 22.4097 109.883 24.4101 109.883 27.5937C109.883 30.786 107.963 32.7778 104.919 32.7778C101.876 32.7778 99.9556 30.786 99.9556 27.5937ZM107.695 27.5937C107.695 25.4099 106.659 24.121 104.919 24.121C103.178 24.121 102.144 25.4197 102.144 27.5937C102.144 29.7863 103.178 31.0654 104.919 31.0654C106.659 31.0654 107.694 29.7863 107.694 27.5937H107.695Z" fill="white"/>
<path d="M111.653 22.5344H113.702V24.2566H113.752C113.89 23.7187 114.216 23.2434 114.675 22.9105C115.133 22.5775 115.696 22.4074 116.269 22.4285C116.517 22.4277 116.763 22.4537 117.005 22.506V24.4487C116.692 24.3563 116.366 24.3139 116.04 24.3232C115.728 24.3109 115.417 24.3641 115.128 24.4791C114.839 24.5941 114.579 24.7681 114.367 24.9893C114.154 25.2105 113.993 25.4735 113.896 25.7603C113.798 26.0472 113.766 26.351 113.801 26.6511V32.6526H111.653L111.653 22.5344Z" fill="white"/>
<path d="M126.909 29.6805C126.62 31.5173 124.77 32.7778 122.403 32.7778C119.359 32.7778 117.469 30.8057 117.469 27.6418C117.469 24.468 119.369 22.4097 122.313 22.4097C125.208 22.4097 127.029 24.3327 127.029 27.4006V28.1121H119.638V28.2376C119.604 28.61 119.652 28.9852 119.779 29.3381C119.906 29.6911 120.11 30.0138 120.376 30.2849C120.643 30.556 120.965 30.7692 121.323 30.9103C121.681 31.0515 122.066 31.1174 122.453 31.1036C122.96 31.1496 123.47 31.0359 123.905 30.7795C124.341 30.5231 124.679 30.1376 124.87 29.6805L126.909 29.6805ZM119.648 26.6606H124.88C124.899 26.3258 124.847 25.9907 124.726 25.6764C124.605 25.3622 124.418 25.0755 124.177 24.8343C123.936 24.5932 123.646 24.4028 123.325 24.2752C123.004 24.1475 122.66 24.0854 122.313 24.0926C121.963 24.0906 121.616 24.1555 121.293 24.2838C120.969 24.412 120.675 24.601 120.427 24.8397C120.179 25.0785 119.983 25.3623 119.849 25.6748C119.715 25.9874 119.647 26.3224 119.648 26.6606V26.6606Z" fill="white"/>
<path d="M44.1966 8.32886C44.6469 8.29761 45.0988 8.36339 45.5197 8.52145C45.9405 8.67951 46.3199 8.92592 46.6303 9.24289C46.9408 9.55986 47.1746 9.9395 47.3149 10.3544C47.4553 10.7693 47.4986 11.2092 47.4418 11.6423C47.4418 13.7727 46.251 14.9973 44.1966 14.9973H41.7053V8.32886H44.1966ZM42.7765 14.0542H44.0769C44.3987 14.0728 44.7207 14.0218 45.0196 13.9049C45.3184 13.788 45.5865 13.6081 45.8044 13.3783C46.0223 13.1486 46.1844 12.8748 46.2791 12.5768C46.3737 12.2789 46.3984 11.9642 46.3514 11.6559C46.395 11.3487 46.3678 11.0361 46.2717 10.7403C46.1756 10.4445 46.0131 10.1729 45.7957 9.94502C45.5783 9.71711 45.3115 9.53852 45.0143 9.42202C44.7172 9.30553 44.3971 9.25403 44.0769 9.27121H42.7765V14.0542Z" fill="white"/>
<path d="M48.652 12.4783C48.6193 12.1476 48.6584 11.8139 48.7669 11.4987C48.8753 11.1834 49.0507 10.8936 49.2819 10.6477C49.513 10.4019 49.7947 10.2055 50.1089 10.071C50.4231 9.93662 50.7629 9.86719 51.1065 9.86719C51.4502 9.86719 51.79 9.93662 52.1042 10.071C52.4184 10.2055 52.7001 10.4019 52.9312 10.6477C53.1623 10.8936 53.3378 11.1834 53.4462 11.4987C53.5547 11.8139 53.5938 12.1476 53.5611 12.4783C53.5944 12.8093 53.5558 13.1435 53.4476 13.4592C53.3394 13.7749 53.1641 14.0653 52.9329 14.3116C52.7018 14.558 52.4199 14.7548 52.1053 14.8895C51.7908 15.0242 51.4506 15.0938 51.1065 15.0938C50.7625 15.0938 50.4223 15.0242 50.1078 14.8895C49.7932 14.7548 49.5113 14.558 49.2802 14.3116C49.049 14.0653 48.8737 13.7749 48.7655 13.4592C48.6573 13.1435 48.6186 12.8093 48.652 12.4783V12.4783ZM52.5045 12.4783C52.5045 11.3874 51.9977 10.7495 51.1082 10.7495C50.2154 10.7495 49.7131 11.3874 49.7131 12.4783C49.7131 13.5779 50.2154 14.2108 51.1082 14.2108C51.9977 14.2108 52.5046 13.5735 52.5046 12.4783H52.5045Z" fill="white"/>
<path d="M60.0867 14.9967H59.0211L57.9453 11.2904H57.8641L56.7929 14.9967H55.7374L54.3027 9.96436H55.3446L56.277 13.8043H56.3538L57.4239 9.96436H58.4093L59.4794 13.8043H59.5606L60.4885 9.96436H61.5157L60.0867 14.9967Z" fill="white"/>
<path d="M62.7222 9.9644H63.711V10.7638H63.7878C63.918 10.4767 64.1376 10.236 64.416 10.0753C64.6944 9.91458 65.0178 9.84186 65.341 9.86726C65.5942 9.84885 65.8485 9.88577 66.085 9.97528C66.3215 10.0648 66.5341 10.2046 66.7071 10.3844C66.8802 10.5641 67.0091 10.7792 67.0845 11.0137C67.1599 11.2482 67.1797 11.4961 67.1425 11.739V14.9967H66.1153V11.9884C66.1153 11.1797 65.7519 10.7775 64.9922 10.7775C64.8202 10.7697 64.6486 10.798 64.489 10.8604C64.3294 10.9228 64.1857 11.0178 64.0676 11.139C63.9496 11.2601 63.86 11.4045 63.8051 11.5622C63.7502 11.7199 63.7312 11.8873 63.7494 12.0528V14.9968H62.7222L62.7222 9.9644Z" fill="white"/>
<path d="M68.7797 8H69.8069V14.9969H68.7797V8Z" fill="white"/>
<path d="M71.2346 12.4784C71.2019 12.1476 71.2411 11.8139 71.3496 11.4987C71.458 11.1834 71.6335 10.8936 71.8646 10.6477C72.0958 10.4019 72.3775 10.2055 72.6917 10.071C73.006 9.93662 73.3458 9.86719 73.6894 9.86719C74.0331 9.86719 74.3729 9.93662 74.6872 10.071C75.0014 10.2055 75.2831 10.4019 75.5143 10.6477C75.7454 10.8936 75.9208 11.1834 76.0293 11.4987C76.1378 11.8139 76.177 12.1476 76.1443 12.4784C76.1776 12.8094 76.1389 13.1436 76.0307 13.4593C75.9224 13.7751 75.7471 14.0654 75.5159 14.3117C75.2847 14.5581 75.0028 14.7549 74.6882 14.8896C74.3737 15.0243 74.0335 15.0939 73.6894 15.0939C73.3454 15.0939 73.0052 15.0243 72.6906 14.8896C72.3761 14.7549 72.0942 14.5581 71.863 14.3117C71.6318 14.0654 71.4564 13.7751 71.3482 13.4593C71.24 13.1436 71.2013 12.8094 71.2346 12.4784V12.4784ZM75.0872 12.4784C75.0872 11.3875 74.5803 10.7496 73.6908 10.7496C72.798 10.7496 72.2957 11.3875 72.2957 12.4784C72.2957 13.5779 72.798 14.2109 73.6908 14.2109C74.5803 14.2109 75.0872 13.5736 75.0872 12.4784H75.0872Z" fill="white"/>
<path d="M77.2255 13.5735C77.2255 12.6677 77.9231 12.1454 79.1613 12.0712L80.5712 11.9927V11.5583C80.5712 11.0268 80.2077 10.7266 79.5056 10.7266C78.9322 10.7266 78.5349 10.9302 78.4209 11.286H77.4264C77.5314 10.4216 78.3723 9.86719 79.553 9.86719C80.8579 9.86719 81.5939 10.4953 81.5939 11.5583V14.9967H80.6051V14.2895H80.5238C80.3588 14.5432 80.1272 14.75 79.8525 14.8888C79.5779 15.0276 79.27 15.0934 78.9604 15.0796C78.7419 15.1016 78.5211 15.079 78.3121 15.0134C78.1032 14.9478 77.9108 14.8406 77.7473 14.6987C77.5839 14.5568 77.453 14.3834 77.3631 14.1896C77.2732 13.9958 77.2263 13.7859 77.2255 13.5735V13.5735ZM80.5712 13.1435V12.7228L79.3002 12.8014C78.5834 12.8477 78.2583 13.0835 78.2583 13.5271C78.2583 13.98 78.6647 14.2436 79.2235 14.2436C79.3872 14.2596 79.5526 14.2437 79.7098 14.1966C79.867 14.1496 80.0128 14.0724 80.1385 13.9698C80.2643 13.8672 80.3674 13.7411 80.4417 13.5992C80.516 13.4572 80.5601 13.3023 80.5712 13.1435V13.1435Z" fill="white"/>
<path d="M82.9442 12.4785C82.9442 10.8884 83.7897 9.88102 85.1047 9.88102C85.43 9.86652 85.7528 9.94185 86.0355 10.0982C86.3181 10.2545 86.5489 10.4854 86.7008 10.7639H86.7776V8H87.8048V14.9969H86.8205V14.2018H86.7392C86.5755 14.4784 86.3367 14.7064 86.0486 14.8612C85.7605 15.0159 85.4341 15.0915 85.1047 15.0798C83.7807 15.0798 82.9442 14.0725 82.9442 12.4785ZM84.0053 12.4785C84.0053 13.5459 84.5257 14.1882 85.396 14.1882C86.2618 14.1882 86.7968 13.5366 86.7968 12.4829C86.7968 11.4341 86.2561 10.7732 85.396 10.7732C84.5313 10.7732 84.0053 11.4199 84.0053 12.4785H84.0053Z" fill="white"/>
<path d="M92.0545 12.4783C92.0217 12.1476 92.0609 11.8139 92.1693 11.4987C92.2778 11.1834 92.4532 10.8936 92.6843 10.6477C92.9154 10.4019 93.1971 10.2055 93.5114 10.071C93.8256 9.93662 94.1654 9.86719 94.509 9.86719C94.8526 9.86719 95.1924 9.93662 95.5067 10.071C95.8209 10.2055 96.1026 10.4019 96.3337 10.6477C96.5648 10.8936 96.7402 11.1834 96.8487 11.4987C96.9572 11.8139 96.9963 12.1476 96.9636 12.4783C96.9969 12.8093 96.9582 13.1435 96.8501 13.4592C96.7419 13.7749 96.5666 14.0653 96.3354 14.3116C96.1042 14.558 95.8223 14.7548 95.5078 14.8895C95.1932 15.0242 94.853 15.0938 94.509 15.0938C94.165 15.0938 93.8248 15.0242 93.5102 14.8895C93.1957 14.7548 92.9138 14.558 92.6826 14.3116C92.4514 14.0653 92.2761 13.7749 92.168 13.4592C92.0598 13.1435 92.0211 12.8093 92.0545 12.4783V12.4783ZM95.907 12.4783C95.907 11.3874 95.4002 10.7495 94.5107 10.7495C93.6178 10.7495 93.1156 11.3874 93.1156 12.4783C93.1156 13.5779 93.6179 14.2108 94.5107 14.2108C95.4002 14.2108 95.907 13.5735 95.907 12.4783Z" fill="white"/>
<path d="M98.3422 9.9644H99.331V10.7638H99.4077C99.538 10.4767 99.7576 10.236 100.036 10.0753C100.314 9.91458 100.638 9.84186 100.961 9.86726C101.214 9.84885 101.469 9.88577 101.705 9.97528C101.941 10.0648 102.154 10.2046 102.327 10.3844C102.5 10.5641 102.629 10.7792 102.704 11.0137C102.78 11.2482 102.8 11.4961 102.763 11.739V14.9967H101.735V11.9884C101.735 11.1797 101.372 10.7775 100.612 10.7775C100.44 10.7697 100.269 10.798 100.109 10.8604C99.9494 10.9228 99.8057 11.0178 99.6876 11.139C99.5696 11.2601 99.48 11.4045 99.4251 11.5622C99.3702 11.7199 99.3512 11.8873 99.3694 12.0528V14.9968H98.3422V9.9644Z" fill="white"/>
<path d="M108.566 8.71143V9.98725H109.694V10.8238H108.566V13.4115C108.566 13.9386 108.791 14.1694 109.302 14.1694C109.433 14.169 109.564 14.1614 109.694 14.1465V14.9738C109.509 15.0057 109.322 15.0227 109.135 15.0245C107.992 15.0245 107.538 14.636 107.538 13.6658V10.8238H106.711V9.98721H107.538V8.71143H108.566Z" fill="white"/>
<path d="M111.098 8H112.116V10.7732H112.197C112.334 10.4834 112.559 10.2413 112.843 10.08C113.127 9.9187 113.456 9.84597 113.784 9.87173C114.036 9.85847 114.288 9.89914 114.522 9.99083C114.755 10.0825 114.965 10.223 115.137 10.4022C115.308 10.5813 115.436 10.7949 115.512 11.0275C115.588 11.2601 115.61 11.506 115.577 11.7478V14.9969H114.548V11.9928C114.548 11.189 114.161 10.7819 113.435 10.7819C113.259 10.7679 113.081 10.7914 112.915 10.8507C112.749 10.91 112.598 11.0037 112.473 11.1252C112.348 11.2467 112.252 11.3931 112.192 11.5542C112.132 11.7153 112.109 11.8872 112.125 12.0578V14.9968H111.098L111.098 8Z" fill="white"/>
<path d="M121.566 13.638C121.426 14.0979 121.124 14.4958 120.712 14.7619C120.299 15.0281 119.804 15.1456 119.311 15.0939C118.968 15.1026 118.627 15.0391 118.312 14.9078C117.997 14.7765 117.715 14.5804 117.487 14.3333C117.258 14.0861 117.087 13.7938 116.987 13.4766C116.887 13.1594 116.859 12.825 116.906 12.4964C116.861 12.1669 116.889 11.8317 116.989 11.5135C117.089 11.1954 117.258 10.9017 117.486 10.6524C117.713 10.4031 117.994 10.204 118.308 10.0685C118.622 9.93307 118.962 9.86444 119.306 9.86727C120.754 9.86727 121.628 10.8239 121.628 12.4042V12.7507H117.953V12.8064C117.937 12.991 117.961 13.1769 118.023 13.3521C118.086 13.5273 118.186 13.6879 118.316 13.8236C118.447 13.9594 118.605 14.0672 118.781 14.1403C118.957 14.2134 119.147 14.2501 119.339 14.248C119.585 14.2766 119.834 14.2338 120.054 14.1252C120.275 14.0165 120.457 13.8469 120.577 13.638L121.566 13.638ZM117.953 12.0162H120.582C120.595 11.8473 120.571 11.6777 120.512 11.5182C120.453 11.3587 120.36 11.2128 120.24 11.0901C120.119 10.9673 119.973 10.8703 119.811 10.8053C119.65 10.7403 119.476 10.7087 119.3 10.7126C119.123 10.7104 118.947 10.7426 118.782 10.8074C118.617 10.8722 118.468 10.9681 118.342 11.0896C118.217 11.2111 118.118 11.3557 118.051 11.5148C117.984 11.674 117.95 11.8444 117.953 12.0162H117.953Z" fill="white"/>
</svg>
