<svg width="133" height="44" viewBox="0 0 133 44" fill="none" xmlns="http://www.w3.org/2000/svg">
<rect width="132.879" height="44.0001" transform="translate(0.0289307)" fill="#2E3A59"/>
<path d="M47.2259 11.4678C47.2259 12.3322 46.9909 13.0217 46.521 13.5259C45.9947 14.1331 45.2992 14.4418 44.4534 14.4418C43.6357 14.4418 42.9497 14.133 42.3764 13.5156C41.8031 12.8982 41.5211 12.1264 41.5211 11.2209C41.5211 10.305 41.8031 9.54355 42.3764 8.92613C42.9497 8.30871 43.6357 8 44.4534 8C44.8575 8 45.2428 8.08232 45.6094 8.25726C45.9759 8.43219 46.2672 8.65858 46.4928 8.94671L45.9947 9.4921C45.6188 9.00845 45.1113 8.76149 44.4534 8.76149C43.8613 8.76149 43.3444 8.98787 42.9121 9.45094C42.4797 9.90372 42.2636 10.5006 42.2636 11.2312C42.2636 11.9618 42.4797 12.5586 42.9121 13.0114C43.3444 13.4642 43.8613 13.7009 44.4534 13.7009C45.0831 13.7009 45.6094 13.4745 46.0323 13.0114C46.3048 12.713 46.4646 12.2911 46.5022 11.756H44.4534V11.0151H47.1883C47.2071 11.1694 47.2259 11.3238 47.2259 11.4678Z" fill="white" stroke="white" stroke-width="0.2" stroke-miterlimit="10"/>
<path d="M51.5584 8.89528H48.9927V10.8504H51.3047V11.5913H48.9927V13.5465H51.5584V14.308H48.269V8.13379H51.5584V8.89528V8.89528Z" fill="white" stroke="white" stroke-width="0.2" stroke-miterlimit="10"/>
<path d="M54.6127 14.308H53.8891V8.89528H52.3102V8.13379H56.1822V8.89528H54.6033V14.308H54.6127Z" fill="white" stroke="white" stroke-width="0.2" stroke-miterlimit="10"/>
<path d="M58.9924 14.308V8.13379H59.7161V14.308H58.9924Z" fill="white" stroke="white" stroke-width="0.2" stroke-miterlimit="10"/>
<path d="M62.9303 14.308H62.2066V8.89528H60.6277V8.13379H64.4998V8.89528H62.9209V14.308H62.9303Z" fill="white" stroke="white" stroke-width="0.2" stroke-miterlimit="10"/>
<path d="M71.84 13.5053C71.2855 14.133 70.5994 14.4418 69.7723 14.4418C68.9453 14.4418 68.2592 14.133 67.7047 13.5053C67.1502 12.8776 66.8777 12.1161 66.8777 11.2209C66.8777 10.3256 67.1502 9.55384 67.7047 8.93642C68.2592 8.30871 68.9453 8 69.7723 8C70.59 8 71.2761 8.30871 71.84 8.93642C72.3945 9.56413 72.6764 10.3256 72.6764 11.2209C72.667 12.1264 72.3945 12.8879 71.84 13.5053ZM68.2404 12.9908C68.654 13.4539 69.1709 13.6803 69.7723 13.6803C70.3738 13.6803 70.8907 13.4539 71.3043 12.9908C71.7178 12.5278 71.9339 11.9412 71.9339 11.2209C71.9339 10.5006 71.7272 9.91401 71.3043 9.45094C70.8907 8.98787 70.3738 8.76149 69.7723 8.76149C69.1709 8.76149 68.654 8.98787 68.2404 9.45094C67.8269 9.91401 67.6107 10.5006 67.6107 11.2209C67.6107 11.9412 67.8269 12.5278 68.2404 12.9908Z" fill="white" stroke="white" stroke-width="0.2" stroke-miterlimit="10"/>
<path d="M73.6912 14.308V8.13379H74.5746L77.3189 12.9394H77.3471L77.3189 11.7457V8.13379H78.0426V14.308H77.2907L74.4242 9.27602H74.396L74.4242 10.4697V14.308H73.6912Z" fill="white" stroke="white" stroke-width="0.2" stroke-miterlimit="10"/>
<path d="M66.6989 23.3121C64.4903 23.3121 62.6858 25.154 62.6858 27.6855C62.6858 30.2066 64.4903 32.0589 66.6989 32.0589C68.9075 32.0589 70.7119 30.2066 70.7119 27.6855C70.7119 25.154 68.9075 23.3121 66.6989 23.3121ZM66.6989 30.3404C65.4865 30.3404 64.4433 29.2496 64.4433 27.6855C64.4433 26.111 65.4865 25.0305 66.6989 25.0305C67.9112 25.0305 68.9544 26.111 68.9544 27.6855C68.9544 29.2496 67.9018 30.3404 66.6989 30.3404ZM57.9397 23.3121C55.7311 23.3121 53.9266 25.154 53.9266 27.6855C53.9266 30.2066 55.7311 32.0589 57.9397 32.0589C60.1483 32.0589 61.9527 30.2066 61.9527 27.6855C61.9527 25.154 60.1483 23.3121 57.9397 23.3121ZM57.9397 30.3404C56.7273 30.3404 55.6841 29.2496 55.6841 27.6855C55.6841 26.111 56.7273 25.0305 57.9397 25.0305C59.1521 25.0305 60.1953 26.111 60.1953 27.6855C60.1953 29.2496 59.1521 30.3404 57.9397 30.3404ZM47.5264 24.6601V26.5124H51.5865C51.4643 27.5517 51.1448 28.3235 50.6655 28.8483C50.0734 29.4966 49.1523 30.2066 47.5358 30.2066C45.0359 30.2066 43.0811 28.0045 43.0811 25.2672C43.0811 22.53 45.0359 20.3279 47.5358 20.3279C48.8798 20.3279 49.8666 20.9041 50.5903 21.6553L51.7838 20.3484C50.7688 19.2885 49.4249 18.4756 47.5264 18.4756C44.1055 18.4756 41.2296 21.5215 41.2296 25.2775C41.2296 29.0232 44.1055 32.0794 47.5264 32.0794C49.3779 32.0794 50.7688 31.4209 51.859 30.1757C52.9774 28.9512 53.3252 27.2224 53.3252 25.8332C53.3252 25.401 53.297 24.9997 53.2312 24.6704H47.5264V24.6601ZM90.1099 26.1007C89.781 25.1232 88.766 23.3121 86.6889 23.3121C84.6307 23.3121 82.9202 25.082 82.9202 27.6855C82.9202 30.1346 84.6119 32.0589 86.8863 32.0589C88.719 32.0589 89.781 30.8343 90.2133 30.1243L88.8505 29.1261C88.3994 29.8567 87.7791 30.3404 86.8863 30.3404C85.9935 30.3404 85.3544 29.8876 84.9503 29.0129L90.2979 26.5947L90.1099 26.1007ZM84.6589 27.562C84.6119 25.8744 85.8525 25.01 86.7453 25.01C87.4408 25.01 88.0329 25.3907 88.2302 25.9361L84.6589 27.562ZM80.3169 31.8016H82.0744V18.9387H80.3169V31.8016ZM77.4411 24.2896H77.3753C76.9805 23.7751 76.2287 23.3121 75.2701 23.3121C73.2682 23.3121 71.4356 25.2363 71.4356 27.706C71.4356 30.1551 73.2682 32.0691 75.2701 32.0691C76.2193 32.0691 76.9805 31.6061 77.3753 31.071H77.4317V31.6987C77.4317 33.376 76.614 34.2713 75.2983 34.2713C74.2269 34.2713 73.5596 33.4275 73.287 32.7174L71.7551 33.4172C72.1968 34.58 73.3622 36.0001 75.2983 36.0001C77.3565 36.0001 79.0952 34.6726 79.0952 31.4414V23.5796H77.4317V24.2896H77.4411ZM75.4204 30.3404C74.2081 30.3404 73.1931 29.229 73.1931 27.706C73.1931 26.1625 74.2081 25.0408 75.4204 25.0408C76.614 25.0408 77.5538 26.1728 77.5538 27.706C77.5632 29.229 76.6234 30.3404 75.4204 30.3404ZM98.3428 18.9387H94.1417V31.8016H95.8992V26.924H98.3522C100.298 26.924 102.205 25.3804 102.205 22.9313C102.205 20.4822 100.279 18.9387 98.3428 18.9387ZM98.3804 25.1334H95.8898V20.7189H98.3804C99.6961 20.7189 100.439 21.9126 100.439 22.921C100.439 23.9295 99.6961 25.1334 98.3804 25.1334ZM109.226 23.2915C107.957 23.2915 106.641 23.9089 106.096 25.2569L107.656 25.967C107.985 25.2569 108.606 25.0203 109.254 25.0203C110.156 25.0203 111.087 25.6171 111.096 26.677V26.8108C110.777 26.6153 110.1 26.3168 109.264 26.3168C107.581 26.3168 105.88 27.3253 105.88 29.2084C105.88 30.9269 107.252 32.0383 108.794 32.0383C109.968 32.0383 110.626 31.462 111.03 30.7828H111.087V31.781H112.778V26.8519C112.788 24.5675 111.228 23.2915 109.226 23.2915ZM109.01 30.3404C108.436 30.3404 107.638 30.0214 107.638 29.2496C107.638 28.2617 108.634 27.881 109.498 27.881C110.269 27.881 110.636 28.0662 111.096 28.3132C110.965 29.4966 110.025 30.3404 109.01 30.3404ZM118.953 23.5693L116.942 29.1467H116.885L114.799 23.5693H112.91L116.04 31.3694L114.254 35.7016H116.087L120.908 23.5693H118.953ZM103.164 31.8016H104.922V18.9387H103.164V31.8016Z" fill="white"/>
<path d="M12.4705 8.68922C12.198 9.00822 12.0382 9.50216 12.0382 10.1299V32.8921C12.0382 33.5301 12.198 34.0241 12.4705 34.3328L12.5363 34.4048L24.1807 21.6654V21.511V21.3566L12.5363 8.61719L12.4705 8.68922Z" fill="url(#paint0_linear_10085_1446)"/>
<path d="M28.0623 25.9155L24.1808 21.6656V21.5112V21.3569L28.0623 17.1069L28.1468 17.1584L32.7426 20.0191C34.0583 20.832 34.0583 22.1698 32.7426 22.993L28.1468 25.8537L28.0623 25.9155Z" fill="url(#paint1_linear_10085_1446)"/>
<path d="M28.1471 25.8538L24.181 21.5112L12.4708 34.333C12.9031 34.8372 13.6174 34.899 14.4257 34.3948L28.1471 25.8538Z" fill="url(#paint2_linear_10085_1446)"/>
<path d="M28.1472 17.1685L14.4164 8.62752C13.6081 8.12329 12.8939 8.18504 12.4615 8.68926L24.1812 21.511L28.1472 17.1685Z" fill="url(#paint3_linear_10085_1446)"/>
<path opacity="0.2" d="M28.063 25.7612L14.4168 34.2508C13.6555 34.7241 12.9694 34.6933 12.5371 34.2611L12.4713 34.3331L12.5371 34.4051C12.9788 34.8373 13.6555 34.8682 14.4168 34.3948L28.1476 25.8538L28.063 25.7612Z" fill="#2E3A59"/>
<path opacity="0.12" d="M12.471 34.1892C12.1985 33.8702 12.0387 33.3762 12.0387 32.7485V32.9029C12.0387 33.5409 12.1985 34.0348 12.471 34.3435L12.5368 34.2715L12.471 34.1892Z" fill="#2E3A59"/>
<path opacity="0.12" d="M32.7427 22.849L28.053 25.7611L28.1376 25.8538L32.7333 22.993C33.3912 22.5814 33.7201 22.0463 33.7201 21.5112C33.6731 21.9949 33.3442 22.4785 32.7427 22.849Z" fill="#2E3A59"/>
<path opacity="0.25" d="M14.4161 8.77188L32.7427 20.1736C33.3348 20.544 33.6731 21.0174 33.7295 21.5113C33.7295 20.9762 33.4005 20.4309 32.7427 20.0295L14.4161 8.62782C13.1003 7.81488 12.0289 8.49404 12.0289 10.1405V10.2949C12.0289 8.63811 13.1097 7.95895 14.4161 8.77188Z" fill="white"/>
<defs>
<linearGradient id="paint0_linear_10085_1446" x1="23.1467" y1="9.89288" x2="5.94774" y2="25.6008" gradientUnits="userSpaceOnUse">
<stop stop-color="#00A0FF"/>
<stop offset="0.00657445" stop-color="#00A1FF"/>
<stop offset="0.2601" stop-color="#00BEFF"/>
<stop offset="0.5122" stop-color="#00D2FF"/>
<stop offset="0.7604" stop-color="#00DFFF"/>
<stop offset="1" stop-color="#00E3FF"/>
</linearGradient>
<linearGradient id="paint1_linear_10085_1446" x1="34.4572" y1="21.5126" x2="11.7164" y2="21.5126" gradientUnits="userSpaceOnUse">
<stop stop-color="#FFE000"/>
<stop offset="0.4087" stop-color="#FFBD00"/>
<stop offset="0.7754" stop-color="#FFA500"/>
<stop offset="1" stop-color="#FF9C00"/>
</linearGradient>
<linearGradient id="paint2_linear_10085_1446" x1="25.9921" y1="23.874" x2="2.66895" y2="45.1752" gradientUnits="userSpaceOnUse">
<stop stop-color="#FF3A44"/>
<stop offset="1" stop-color="#C31162"/>
</linearGradient>
<linearGradient id="paint3_linear_10085_1446" x1="9.51736" y1="1.11165" x2="19.9322" y2="10.6235" gradientUnits="userSpaceOnUse">
<stop stop-color="#32A071"/>
<stop offset="0.0685" stop-color="#2DA771"/>
<stop offset="0.4762" stop-color="#15CF74"/>
<stop offset="0.8009" stop-color="#06E775"/>
<stop offset="1" stop-color="#00F076"/>
</linearGradient>
</defs>
</svg>
