<svg width="77" height="99" viewBox="0 0 77 99" fill="none" xmlns="http://www.w3.org/2000/svg">
<g clip-path="url(#clip0_10152_1472)">
<path opacity="0.1" d="M36.9545 97.2727C30.1667 97.2727 24.1212 96.1061 18.8182 93.7727C13.5455 91.4091 9.37879 88.1667 6.31818 84.0455C3.28788 79.8939 1.72727 75.1061 1.63636 69.6818L21.4545 69.6818C21.5758 71.9545 22.3182 73.9545 23.6818 75.6818C25.0758 77.3788 26.9242 78.697 29.2273 79.6364C31.5303 80.5758 34.1212 81.0455 37 81.0455C40 81.0455 42.6515 80.5152 44.9545 79.4545C47.2576 78.3939 49.0606 76.9242 50.3636 75.0455C51.6667 73.1667 52.3182 71 52.3182 68.5455C52.3182 66.0606 51.6212 63.8636 50.2273 61.9545C48.8636 60.0151 46.8939 58.5 44.3182 57.4091C41.7727 56.3182 38.7424 55.7727 35.2273 55.7727L26.5455 55.7727L26.5455 41.3182L35.2273 41.3182C38.197 41.3182 40.8182 40.803 43.0909 39.7727C45.3939 38.7424 47.1818 37.3182 48.4545 35.5C49.7273 33.6515 50.3636 31.5 50.3636 29.0455C50.3636 26.7121 49.803 24.6667 48.6818 22.9091C47.5909 21.1212 46.0455 19.7273 44.0455 18.7273C42.0758 17.7273 39.7727 17.2273 37.1364 17.2273C34.4697 17.2273 32.0303 17.7121 29.8182 18.6818C27.6061 19.6212 25.8333 20.9697 24.5 22.7273C23.1667 24.4848 22.4545 26.5455 22.3636 28.9091L3.5 28.9091C3.59091 23.5455 5.12121 18.8182 8.09091 14.7273C11.0606 10.6364 15.0606 7.43939 20.0909 5.13636C25.1515 2.80303 30.8636 1.63636 37.2273 1.63636C43.6515 1.63636 49.2727 2.80303 54.0909 5.13636C58.9091 7.46969 62.6515 10.6212 65.3182 14.5909C68.0152 18.5303 69.3485 22.9545 69.3182 27.8636C69.3485 33.0758 67.7273 37.4242 64.4545 40.9091C61.2121 44.3939 56.9849 46.6061 51.7727 47.5455L51.7727 48.2727C58.6212 49.1515 63.8333 51.5303 67.4091 55.4091C71.0152 59.2576 72.803 64.0758 72.7727 69.8636C72.803 75.1667 71.2727 79.8788 68.1818 84C65.1212 88.1212 60.8939 91.3636 55.5 93.7273C50.1061 96.0909 43.9242 97.2727 36.9545 97.2727Z" fill="#00B9B6"/>
</g>
<defs>
<clipPath id="clip0_10152_1472">
<rect width="77" height="99" fill="white"/>
</clipPath>
</defs>
</svg>
