<svg width="78" height="99" viewBox="0 0 78 99" fill="none" xmlns="http://www.w3.org/2000/svg">
<g clip-path="url(#clip0_10152_1470)">
<path opacity="0.1" d="M7.54546 96L7.54546 81.8182L40.6818 51.1364C43.5 48.4091 45.8636 45.9545 47.7727 43.7727C49.7121 41.5909 51.1818 39.4545 52.1818 37.3636C53.1818 35.2424 53.6818 32.9545 53.6818 30.5C53.6818 27.7727 53.0606 25.4242 51.8182 23.4545C50.5758 21.4545 48.8788 19.9242 46.7273 18.8636C44.5758 17.7727 42.1364 17.2273 39.4091 17.2273C36.5606 17.2273 34.0758 17.803 31.9545 18.9545C29.8333 20.1061 28.197 21.7576 27.0455 23.9091C25.8939 26.0606 25.3182 28.6212 25.3182 31.5909L6.63636 31.5909C6.63636 25.5 8.01515 20.2121 10.7727 15.7273C13.5303 11.2424 17.3939 7.77273 22.3636 5.31818C27.3333 2.86363 33.0606 1.63636 39.5455 1.63636C46.2121 1.63636 52.0152 2.81818 56.9545 5.18182C61.9242 7.51515 65.7879 10.7576 68.5455 14.9091C71.303 19.0606 72.6818 23.8182 72.6818 29.1818C72.6818 32.697 71.9849 36.1667 70.5909 39.5909C69.2273 43.0152 66.7879 46.8182 63.2727 51C59.7576 55.1515 54.803 60.1364 48.4091 65.9545L34.8182 79.2727L34.8182 79.9091L73.9091 79.9091L73.9091 96L7.54546 96Z" fill="#00B9B6"/>
</g>
<defs>
<clipPath id="clip0_10152_1470">
<rect width="78" height="99" fill="white"/>
</clipPath>
</defs>
</svg>
